<?xml version="1.0" encoding="UTF-8" standalone="no"?>
<!-- Uploaded to: SVG Repo, www.svgrepo.com, Generator: SVG Repo Mixer Tools -->
<svg width="800px" height="800px" viewBox="0 -2.5 64 64" version="1.1" xmlns="http://www.w3.org/2000/svg" xmlns:xlink="http://www.w3.org/1999/xlink" xmlns:sketch="http://www.bohemiancoding.com/sketch/ns">
    
    <title>Thumb-down</title>
    <desc>Created with Sketch.</desc>
    <defs>
</defs>
    <g id="Page-1" stroke="none" stroke-width="1" fill="none" fill-rule="evenodd" sketch:type="MSPage">
        <g id="Thumb-down" sketch:type="MSLayerGroup" transform="translate(2.000000, 1.000000)" stroke="#6B6C6E" stroke-width="2">
            <path d="M43,36 L58.1,36 C60.9,36 61,33.9 61,31.2 L61,6.9 C61,4.3 60.9,2.1 58.1,2.1 L43,2.1 C40.2,2.1 40.1,4.2 40.1,6.9 L40.1,31.2 C40.1,33.8 40.2,36 43,36 L43,36 Z" id="Shape" sketch:type="MSShapeGroup">
</path>
            <path d="M40.3,5.7 L38.9,5.7 C35.1,5.8 32.6,0 29.7,0 L7.1,0 C4.3,0 3.7,4.2 3.8,6 C3.8,6 0.3,7.6 1.9,14 C1.7,14.1 -0.1,15.8 -0.1,19.1 C-0.1,22.4 1.8,24 1.8,24 C1.8,24 -0.1,26.1 -0.1,29.2 C-0.1,32.3 2.6,34 5.4,34 L13.7,34 C20.9,34 20.3,37.9 20.3,37.9 C20.3,37.9 21.1,48 23.7,52.7 C26.9,58.5 33.3,56.6 30.9,49 C29.1,43.4 37.2,35 40.2,32.2" id="Shape" sketch:type="MSShapeGroup">
</path>
        </g>
    </g>
</svg>